<svg width="50" height="50" viewBox="0 0 50 50" fill="none" xmlns="http://www.w3.org/2000/svg">
<path d="M45.8333 12.0833C44.2673 12.7627 42.6113 13.2118 40.9166 13.4167C42.7045 12.3486 44.0443 10.6683 44.6875 8.68749C43.0074 9.68763 41.1682 10.3923 39.25 10.7708C37.9678 9.38035 36.2603 8.45478 34.3954 8.13927C32.5305 7.82376 30.6136 8.13616 28.9454 9.02747C27.2771 9.91879 25.9519 11.3386 25.1775 13.0642C24.4032 14.7899 24.2235 16.7237 24.6666 18.5625C21.2696 18.3907 17.9467 17.5061 14.9138 15.9664C11.8809 14.4266 9.20589 12.266 7.06246 9.62499C6.31066 10.9378 5.91562 12.4246 5.91663 13.9375C5.91396 15.3425 6.25874 16.7263 6.92028 17.9658C7.58182 19.2052 8.53958 20.2619 9.70829 21.0417C8.34991 21.0047 7.02055 20.6402 5.83329 19.9792V20.0833C5.84347 22.0519 6.53328 23.9564 7.78603 25.4749C9.03878 26.9934 10.7776 28.0326 12.7083 28.4167C11.9651 28.6428 11.1934 28.7621 10.4166 28.7708C9.8789 28.7645 9.34251 28.7158 8.81246 28.625C9.36227 30.3184 10.4263 31.7982 11.8564 32.8587C13.2865 33.9191 15.0116 34.5074 16.7916 34.5417C13.7858 36.9068 10.0747 38.1976 6.24996 38.2083C5.55357 38.2106 4.85774 38.1689 4.16663 38.0833C8.07168 40.6047 12.6225 41.9432 17.2708 41.9375C20.4785 41.9708 23.6607 41.3646 26.6314 40.1543C29.6022 38.944 32.3021 37.1539 34.5733 34.8885C36.8445 32.6231 38.6415 29.9279 39.8595 26.9602C41.0774 23.9925 41.6917 20.8119 41.6666 17.6042C41.6666 17.25 41.6666 16.875 41.6666 16.5C43.3014 15.2809 44.7114 13.7863 45.8333 12.0833V12.0833Z" fill="#404040"/>
</svg>
