<svg width="50" height="50" viewBox="0 0 50 50" fill="none" xmlns="http://www.w3.org/2000/svg">
<path d="M47.9168 20.2302C48.0198 17.2482 47.3677 14.2885 46.0209 11.626C45.1072 10.5335 43.8391 9.79622 42.4376 9.54266C36.6408 9.01667 30.82 8.80108 25.0001 8.89682C19.2014 8.79674 13.4016 9.00536 7.6251 9.52182C6.48306 9.72957 5.42618 10.2652 4.58343 11.0635C2.70843 12.7927 2.5001 15.751 2.29176 18.251C1.9895 22.7459 1.9895 27.2561 2.29176 31.751C2.35203 33.1581 2.56154 34.5548 2.91676 35.9177C3.16796 36.9699 3.67619 37.9434 4.39593 38.751C5.2444 39.5915 6.3259 40.1577 7.5001 40.376C11.9916 40.9304 16.5172 41.1602 21.0418 41.0635C28.3334 41.1677 34.7293 41.0635 42.2918 40.4802C43.4948 40.2753 44.6067 39.7084 45.4793 38.8552C46.0625 38.2716 46.4982 37.5574 46.7501 36.7718C47.4952 34.4856 47.8611 32.0929 47.8334 29.6885C47.9168 28.5218 47.9168 21.4802 47.9168 20.2302ZM20.2918 30.9385V18.0427L32.6251 24.5218C29.1668 26.4385 24.6043 28.6052 20.2918 30.9385Z" fill="#404040"/>
</svg>
