<svg width="50" height="50" viewBox="0 0 50 50" fill="none" xmlns="http://www.w3.org/2000/svg">
<path d="M25 14.5833C22.9397 14.5833 20.9258 15.1943 19.2128 16.3389C17.4998 17.4835 16.1646 19.1103 15.3762 21.0137C14.5878 22.9171 14.3815 25.0116 14.7834 27.0322C15.1854 29.0528 16.1775 30.9089 17.6343 32.3657C19.0911 33.8225 20.9471 34.8146 22.9678 35.2165C24.9884 35.6184 27.0828 35.4122 28.9862 34.6238C30.8896 33.8353 32.5165 32.5002 33.6611 30.7872C34.8057 29.0742 35.4166 27.0602 35.4166 25C35.4166 22.2373 34.3192 19.5878 32.3657 17.6343C30.4121 15.6808 27.7626 14.5833 25 14.5833V14.5833ZM25 31.25C23.7638 31.25 22.5555 30.8834 21.5276 30.1967C20.4998 29.5099 19.6988 28.5338 19.2257 27.3918C18.7527 26.2497 18.6289 24.9931 18.8701 23.7807C19.1112 22.5683 19.7065 21.4547 20.5805 20.5806C21.4546 19.7065 22.5683 19.1113 23.7806 18.8701C24.993 18.6289 26.2497 18.7527 27.3917 19.2258C28.5338 19.6988 29.5099 20.4999 30.1966 21.5277C30.8834 22.5555 31.25 23.7639 31.25 25C31.25 26.6576 30.5915 28.2473 29.4194 29.4194C28.2473 30.5915 26.6576 31.25 25 31.25ZM35.4166 12.5C35.0046 12.5 34.6018 12.6222 34.2592 12.8511C33.9166 13.08 33.6496 13.4054 33.4919 13.7861C33.3342 14.1668 33.2929 14.5856 33.3733 14.9898C33.4537 15.3939 33.6521 15.7651 33.9435 16.0565C34.2348 16.3478 34.6061 16.5463 35.0102 16.6266C35.4143 16.707 35.8332 16.6658 36.2139 16.5081C36.5946 16.3504 36.9199 16.0834 37.1489 15.7408C37.3778 15.3982 37.5 14.9954 37.5 14.5833C37.5 14.0308 37.2805 13.5009 36.8898 13.1102C36.4991 12.7195 35.9692 12.5 35.4166 12.5ZM45.7083 17.1667C45.6738 15.3863 45.3356 13.6249 44.7083 11.9583C44.1266 10.4418 43.2324 9.06457 42.0839 7.91604C40.9354 6.76751 39.5582 5.87337 38.0416 5.29167C36.3751 4.66438 34.6137 4.32619 32.8333 4.29167C30.8125 4.16667 30.1458 4.16667 25 4.16667C19.8541 4.16667 19.1875 4.16667 17.1666 4.29167C15.3863 4.32619 13.6248 4.66438 11.9583 5.29167C10.4418 5.87337 9.06453 6.76751 7.916 7.91604C6.76747 9.06457 5.87333 10.4418 5.29163 11.9583C4.66433 13.6249 4.32614 15.3863 4.29163 17.1667C4.16663 19.2083 4.16663 19.875 4.16663 25C4.16663 30.125 4.16663 30.7917 4.29163 32.8333C4.32614 34.6137 4.66433 36.3751 5.29163 38.0417C5.87333 39.5582 6.76747 40.9354 7.916 42.084C9.06453 43.2325 10.4418 44.1266 11.9583 44.7083C13.6248 45.3356 15.3863 45.6738 17.1666 45.7083C19.25 45.7083 19.8541 45.8333 25 45.8333C30.1458 45.8333 30.8125 45.8333 32.8333 45.7083C34.6137 45.6738 36.3751 45.3356 38.0416 44.7083C39.5582 44.1266 40.9354 43.2325 42.0839 42.084C43.2324 40.9354 44.1266 39.5582 44.7083 38.0417C45.3356 36.3751 45.6738 34.6137 45.7083 32.8333C45.7083 30.75 45.8333 30.125 45.8333 25C45.8333 19.875 45.8333 19.2083 45.7083 17.1667ZM41.5416 32.6458C41.5051 33.9679 41.259 35.2759 40.8125 36.5208C40.4433 37.5049 39.8597 38.3944 39.1041 39.125C38.3779 39.8809 37.4866 40.4585 36.5 40.8125C35.2521 41.2773 33.9354 41.5308 32.6041 41.5625C30.6458 41.5625 30.0416 41.6667 24.9791 41.6667C19.9166 41.6667 19.3333 41.6667 17.375 41.6667C16.0458 41.6324 14.7307 41.3862 13.4791 40.9375C12.4951 40.5683 11.6055 39.9848 10.875 39.2292C10.119 38.503 9.54146 37.6117 9.18746 36.625C8.72455 35.3838 8.4711 34.0743 8.43746 32.75C8.43746 30.6667 8.43746 30.1458 8.43746 25.1042C8.43746 20.0625 8.43746 19.4583 8.43746 17.4583C8.47337 16.1275 8.72671 14.8115 9.18746 13.5625C9.54695 12.5847 10.124 11.7013 10.875 10.9792C11.6012 10.2232 12.4925 9.64567 13.4791 9.29167C14.727 8.82687 16.0437 8.5734 17.375 8.54167C19.3333 8.33334 19.9375 8.33334 25 8.33334C30.0625 8.33334 30.6666 8.33334 32.625 8.33334C33.9628 8.36736 35.2859 8.62072 36.5416 9.08334C37.5195 9.44283 38.4028 10.0199 39.125 10.7708C39.8809 11.497 40.4585 12.3884 40.8125 13.375C41.3225 14.6428 41.6114 15.9887 41.6666 17.3542C41.6666 19.4375 41.7708 19.9583 41.7708 25C41.7708 30.0417 41.6666 30.6458 41.6666 32.6458H41.5416Z" fill="#404040"/>
</svg>
