<svg width="20" height="20" viewBox="0 0 20 20" fill="none" xmlns="http://www.w3.org/2000/svg">
<path d="M12.5 2C13.0052 2 13.4922 2.0651 13.9609 2.19531C14.4297 2.32552 14.8672 2.51042 15.2734 2.75C15.6797 2.98958 16.0495 3.27865 16.3828 3.61719C16.7214 3.95052 17.0104 4.32031 17.25 4.72656C17.4896 5.13281 17.6745 5.57031 17.8047 6.03906C17.9349 6.50781 18 6.99479 18 7.5C18 8.00521 17.9349 8.49219 17.8047 8.96094C17.6745 9.42969 17.4896 9.86719 17.25 10.2734C17.0104 10.6797 16.7214 11.0521 16.3828 11.3906C16.0495 11.724 15.6797 12.0104 15.2734 12.25C14.8672 12.4896 14.4297 12.6745 13.9609 12.8047C13.4922 12.9349 13.0052 13 12.5 13C11.849 13 11.224 12.8906 10.625 12.6719C10.0312 12.4531 9.48438 12.138 8.98438 11.7266L2.85156 17.8516C2.7526 17.9505 2.63542 18 2.5 18C2.36458 18 2.2474 17.9505 2.14844 17.8516C2.04948 17.7526 2 17.6354 2 17.5C2 17.3646 2.04948 17.2474 2.14844 17.1484L8.27344 11.0156C7.86198 10.5156 7.54688 9.96875 7.32812 9.375C7.10938 8.77604 7 8.15104 7 7.5C7 6.99479 7.0651 6.50781 7.19531 6.03906C7.32552 5.57031 7.51042 5.13281 7.75 4.72656C7.98958 4.32031 8.27604 3.95052 8.60938 3.61719C8.94792 3.27865 9.32031 2.98958 9.72656 2.75C10.1328 2.51042 10.5703 2.32552 11.0391 2.19531C11.5078 2.0651 11.9948 2 12.5 2ZM12.5 12C13.1198 12 13.7031 11.8828 14.25 11.6484C14.7969 11.4089 15.2734 11.0859 15.6797 10.6797C16.0859 10.2734 16.4062 9.79688 16.6406 9.25C16.8802 8.70312 17 8.11979 17 7.5C17 6.88021 16.8802 6.29688 16.6406 5.75C16.4062 5.20312 16.0859 4.72656 15.6797 4.32031C15.2734 3.91406 14.7969 3.59375 14.25 3.35938C13.7031 3.11979 13.1198 3 12.5 3C11.8802 3 11.2969 3.11979 10.75 3.35938C10.2031 3.59375 9.72656 3.91406 9.32031 4.32031C8.91406 4.72656 8.59115 5.20312 8.35156 5.75C8.11719 6.29688 8 6.88021 8 7.5C8 8.11979 8.11719 8.70312 8.35156 9.25C8.59115 9.79688 8.91406 10.2734 9.32031 10.6797C9.72656 11.0859 10.2031 11.4089 10.75 11.6484C11.2969 11.8828 11.8802 12 12.5 12Z" fill="#FF4747"/>
</svg>
