<svg width="200" height="43" viewBox="0 0 200 43" fill="none" xmlns="http://www.w3.org/2000/svg">
<g clip-path="url(#clip0_2193_4433)">
<path fill-rule="evenodd" clip-rule="evenodd" d="M39.2257 0V38.8326L52.9539 23.6436L39.2257 0Z" fill="#4771FF"/>
<path fill-rule="evenodd" clip-rule="evenodd" d="M43.1704 42.1171H68.3222L75.6583 22.0469L43.1704 42.1171Z" fill="#4771FF"/>
<path d="M43.9265 38.2022L55.1971 25.7322L70.5978 21.725L43.9265 38.2022Z" fill="#FF4747" stroke="#FF4747"/>
<path d="M35.9334 37.5337L23.3208 23.579L35.9334 1.8569V37.5337Z" fill="#FF4747" stroke="#FF4747"/>
<path d="M0.964976 23.2308L30.7277 41.6171H7.68554L0.964976 23.2308Z" fill="#FF4747" stroke="#FF4747"/>
<path fill-rule="evenodd" clip-rule="evenodd" d="M1.97223 20.4048L20.7319 25.286L34.4608 40.4758L1.97223 20.4048Z" fill="#4771FF"/>
<path fill-rule="evenodd" clip-rule="evenodd" d="M96.0409 1.68323H79.5305V6.62751H85.2459V24.1593H90.3263V6.62751H96.0409V1.68323Z" fill="#4771FF"/>
<path fill-rule="evenodd" clip-rule="evenodd" d="M110.329 1.68323V10.289H103.344V1.68323H98.2633V24.1593H103.344V15.2332H110.329V24.1593H115.409V1.68323H110.329Z" fill="#4771FF"/>
<path fill-rule="evenodd" clip-rule="evenodd" d="M133.348 24.1596H138.905L131.347 1.68347H124.87L117.314 24.1596H122.87L123.981 20.6278H132.237L133.348 24.1596ZM125.506 15.8118L128.109 7.55942L130.713 15.8118H125.506Z" fill="#4771FF"/>
<path fill-rule="evenodd" clip-rule="evenodd" d="M163.035 1.68323H157.955L151.922 11.6693L145.89 1.68323H140.809V24.1593H145.89V11.0909L151.636 20.6283H152.208L157.955 11.0909V24.1593H163.035V1.68323Z" fill="#4771FF"/>
<path fill-rule="evenodd" clip-rule="evenodd" d="M171.925 19.2149V15.2331H179.863V10.3526H171.925V6.62811H180.656V1.68311H166.845V24.1592H180.815V19.2149H171.925Z" fill="#4771FF"/>
<path fill-rule="evenodd" clip-rule="evenodd" d="M191.452 24.6095C196.278 24.6095 199.707 22.0403 199.707 17.7059C199.707 12.9537 195.929 11.7654 192.563 10.7384C189.102 9.67849 188.562 8.97258 188.562 7.94416C188.562 7.04546 189.357 6.24279 190.944 6.24279C192.976 6.24279 194.024 7.23824 194.786 8.84358L199.072 6.30729C197.453 2.99988 194.596 1.23401 190.944 1.23401C187.102 1.23401 183.482 3.73804 183.482 8.07316C183.482 12.376 186.721 13.9814 190.023 14.9123C193.357 15.844 194.626 16.3894 194.626 17.7697C194.626 18.6368 194.024 19.6007 191.611 19.6007C189.102 19.6007 187.737 18.348 186.944 16.4854L182.561 19.0546C183.8 22.3613 186.784 24.6095 191.452 24.6095Z" fill="#4771FF"/>
<path fill-rule="evenodd" clip-rule="evenodd" d="M90.3377 36.5478C91.0959 36.1358 91.6012 35.3403 91.6012 34.3756C91.6012 32.9409 90.4496 31.7619 89.0174 31.7619H85.0992V41.7021H89.3406C90.8288 41.7021 92.0229 40.4952 92.0229 38.9902C92.0229 37.8536 91.3213 36.9313 90.3377 36.5478ZM89.0174 32.4722C90.0287 32.4722 90.8571 33.3243 90.8571 34.3756C90.8571 35.4263 90.0287 36.2777 89.0174 36.2777H85.8433V32.4722H89.0174ZM89.3406 40.9919H85.8433V36.9879H89.3406C90.4078 36.9879 91.2781 37.8823 91.2781 38.9902C91.2781 40.0975 90.4078 40.9919 89.3406 40.9919ZM100.056 41.7021H100.912L98.4688 37.5275C99.7175 37.1871 100.631 36.0505 100.631 34.7017C100.631 33.0828 99.3256 31.7619 97.724 31.7619H93.8484V41.7021H94.5925V37.6264H97.6957L100.056 41.7021ZM94.5925 32.4722H97.724C98.9174 32.4722 99.8869 33.4662 99.8869 34.7017C99.8869 35.9229 98.9174 36.9176 97.724 36.9176H94.5925V32.4722ZM102.456 41.7021H103.201V31.7619H102.456V41.7021ZM111.682 31.7619H104.745V32.4722H107.834V41.7021H108.593V32.4722H111.682V31.7619ZM113.227 41.7021H113.971V31.7619H113.227V41.7021ZM119.279 41.8591C121.231 41.8591 122.509 40.7798 122.509 39.1321C122.509 37.4143 120.992 36.8603 119.251 36.2777C117.846 35.8097 116.849 35.4399 116.849 34.2466C116.849 33.1394 117.707 32.3295 119.068 32.3295C120.473 32.3295 121.231 33.1537 121.596 34.0488L122.228 33.6934C121.751 32.5424 120.683 31.6057 119.068 31.6057C117.398 31.6057 116.092 32.6427 116.092 34.276C116.092 36.0082 117.566 36.4762 119.209 37.0165C120.712 37.4996 121.751 37.9532 121.751 39.1465C121.751 40.2831 120.922 41.1345 119.279 41.1345C117.664 41.1345 116.667 40.3254 116.331 39.1321L115.684 39.5156C116.133 40.9217 117.439 41.8591 119.279 41.8591ZM130.724 31.7619V36.2347H125.008V31.7619H124.264V41.7021H125.008V36.9456H130.724V41.7021H131.468V31.7619H130.724ZM140.665 41.8591C142.617 41.8591 143.895 40.7798 143.895 39.1321C143.895 37.4143 142.379 36.8603 140.638 36.2777C139.233 35.8097 138.236 35.4399 138.236 34.2466C138.236 33.1394 139.093 32.3295 140.455 32.3295C141.859 32.3295 142.617 33.1537 142.983 34.0488L143.614 33.6934C143.137 32.5424 142.07 31.6057 140.455 31.6057C138.784 31.6057 137.479 32.6427 137.479 34.276C137.479 36.0082 138.953 36.4762 140.595 37.0165C142.098 37.4996 143.137 37.9532 143.137 39.1465C143.137 40.2831 142.308 41.1345 140.665 41.1345C139.05 41.1345 138.054 40.3254 137.717 39.1321L137.07 39.5156C137.52 40.9217 138.826 41.8591 140.665 41.8591ZM150.2 41.8591C152.039 41.8591 153.64 40.893 154.44 39.4296L153.781 39.0469C153.135 40.2967 151.759 41.1345 150.2 41.1345C147.616 41.1345 145.833 39.1744 145.833 36.732C145.833 34.2903 147.616 32.3295 150.2 32.3295C151.745 32.3295 153.107 33.1537 153.753 34.3756L154.413 33.9915C153.598 32.5424 152.011 31.6057 150.2 31.6057C147.209 31.6057 145.089 33.8926 145.089 36.732C145.089 39.5729 147.209 41.8591 150.2 41.8591ZM162.656 31.7619V36.2347H156.94V31.7619H156.196V41.7021H156.94V36.9456H162.656V41.7021H163.401V31.7619H162.656ZM170.351 41.8591C173.188 41.8591 175.421 39.5729 175.421 36.732C175.421 33.8926 173.188 31.6057 170.351 31.6057C167.514 31.6057 165.281 33.8926 165.281 36.732C165.281 39.5729 167.514 41.8591 170.351 41.8591ZM170.351 41.1345C167.922 41.1345 166.026 39.1744 166.026 36.732C166.026 34.2903 167.922 32.3295 170.351 32.3295C172.781 32.3295 174.677 34.2903 174.677 36.732C174.677 39.1744 172.781 41.1345 170.351 41.1345ZM181.81 41.8591C184.647 41.8591 186.879 39.5729 186.879 36.732C186.879 33.8926 184.647 31.6057 181.81 31.6057C178.973 31.6057 176.741 33.8926 176.741 36.732C176.741 39.5729 178.973 41.8591 181.81 41.8591ZM181.81 41.1345C179.38 41.1345 177.485 39.1744 177.485 36.732C177.485 34.2903 179.38 32.3295 181.81 32.3295C184.24 32.3295 186.135 34.2903 186.135 36.732C186.135 39.1744 184.24 41.1345 181.81 41.1345ZM189.505 40.9919V31.7619H188.761V41.7021H194.139V40.9919H189.505Z" fill="#E20E40"/>
<path fill-rule="evenodd" clip-rule="evenodd" d="M90.3377 36.5478C91.0959 36.1358 91.6012 35.3403 91.6012 34.3756C91.6012 32.9409 90.4496 31.7619 89.0174 31.7619H85.0992V41.7021H89.3406C90.8288 41.7021 92.0229 40.4952 92.0229 38.9902C92.0229 37.8536 91.3213 36.9313 90.3377 36.5478ZM89.0174 32.4722C90.0287 32.4722 90.8571 33.3243 90.8571 34.3756C90.8571 35.4263 90.0287 36.2777 89.0174 36.2777H85.8433V32.4722H89.0174ZM89.3406 40.9919H85.8433V36.9879H89.3406C90.4078 36.9879 91.2781 37.8823 91.2781 38.9902C91.2781 40.0975 90.4078 40.9919 89.3406 40.9919ZM100.056 41.7021H100.912L98.4688 37.5275C99.7175 37.1871 100.631 36.0505 100.631 34.7017C100.631 33.0828 99.3256 31.7619 97.724 31.7619H93.8484V41.7021H94.5925V37.6264H97.6957L100.056 41.7021ZM94.5925 32.4722H97.724C98.9174 32.4722 99.8869 33.4662 99.8869 34.7017C99.8869 35.9229 98.9174 36.9176 97.724 36.9176H94.5925V32.4722ZM102.456 41.7021H103.201V31.7619H102.456V41.7021ZM111.682 31.7619H104.745V32.4722H107.834V41.7021H108.593V32.4722H111.682V31.7619ZM113.227 41.7021H113.971V31.7619H113.227V41.7021ZM119.279 41.8591C121.231 41.8591 122.509 40.7798 122.509 39.1321C122.509 37.4143 120.992 36.8603 119.251 36.2777C117.846 35.8097 116.849 35.4399 116.849 34.2466C116.849 33.1394 117.707 32.3295 119.068 32.3295C120.473 32.3295 121.231 33.1537 121.596 34.0488L122.228 33.6934C121.751 32.5424 120.683 31.6057 119.068 31.6057C117.398 31.6057 116.092 32.6427 116.092 34.276C116.092 36.0082 117.566 36.4762 119.209 37.0165C120.712 37.4996 121.751 37.9532 121.751 39.1465C121.751 40.2831 120.922 41.1345 119.279 41.1345C117.664 41.1345 116.667 40.3254 116.331 39.1321L115.684 39.5156C116.133 40.9217 117.439 41.8591 119.279 41.8591ZM130.724 31.7619V36.2347H125.008V31.7619H124.264V41.7021H125.008V36.9456H130.724V41.7021H131.468V31.7619H130.724ZM140.665 41.8591C142.617 41.8591 143.895 40.7798 143.895 39.1321C143.895 37.4143 142.379 36.8603 140.638 36.2777C139.233 35.8097 138.236 35.4399 138.236 34.2466C138.236 33.1394 139.093 32.3295 140.455 32.3295C141.859 32.3295 142.617 33.1537 142.983 34.0488L143.614 33.6934C143.137 32.5424 142.07 31.6057 140.455 31.6057C138.784 31.6057 137.479 32.6427 137.479 34.276C137.479 36.0082 138.953 36.4762 140.595 37.0165C142.098 37.4996 143.137 37.9532 143.137 39.1465C143.137 40.2831 142.308 41.1345 140.665 41.1345C139.05 41.1345 138.054 40.3254 137.717 39.1321L137.07 39.5156C137.52 40.9217 138.826 41.8591 140.665 41.8591ZM150.2 41.8591C152.039 41.8591 153.64 40.893 154.44 39.4296L153.781 39.0469C153.135 40.2967 151.759 41.1345 150.2 41.1345C147.616 41.1345 145.833 39.1744 145.833 36.732C145.833 34.2903 147.616 32.3295 150.2 32.3295C151.745 32.3295 153.107 33.1537 153.753 34.3756L154.413 33.9915C153.598 32.5424 152.011 31.6057 150.2 31.6057C147.209 31.6057 145.089 33.8926 145.089 36.732C145.089 39.5729 147.209 41.8591 150.2 41.8591ZM162.656 31.7619V36.2347H156.94V31.7619H156.196V41.7021H156.94V36.9456H162.656V41.7021H163.401V31.7619H162.656ZM170.351 41.8591C173.188 41.8591 175.421 39.5729 175.421 36.732C175.421 33.8926 173.188 31.6057 170.351 31.6057C167.514 31.6057 165.281 33.8926 165.281 36.732C165.281 39.5729 167.514 41.8591 170.351 41.8591ZM170.351 41.1345C167.922 41.1345 166.026 39.1744 166.026 36.732C166.026 34.2903 167.922 32.3295 170.351 32.3295C172.781 32.3295 174.677 34.2903 174.677 36.732C174.677 39.1744 172.781 41.1345 170.351 41.1345ZM181.81 41.8591C184.647 41.8591 186.879 39.5729 186.879 36.732C186.879 33.8926 184.647 31.6057 181.81 31.6057C178.973 31.6057 176.741 33.8926 176.741 36.732C176.741 39.5729 178.973 41.8591 181.81 41.8591ZM181.81 41.1345C179.38 41.1345 177.485 39.1744 177.485 36.732C177.485 34.2903 179.38 32.3295 181.81 32.3295C184.24 32.3295 186.135 34.2903 186.135 36.732C186.135 39.1744 184.24 41.1345 181.81 41.1345ZM189.505 40.9919V31.7619H188.761V41.7021H194.139V40.9919H189.505Z" fill="#FF4747" stroke="#FF4747" stroke-width="0.5"/>
</g>
<defs>
<clipPath id="clip0_2193_4433">
<rect width="200" height="43" fill="white"/>
</clipPath>
</defs>
</svg>
